<?xml version="1.0" encoding="utf-8"?>
<!-- Generator: Adobe Illustrator 28.0.0, SVG Export Plug-In . SVG Version: 6.00 Build 0)  -->
<svg version="1.1" id="Layer_1" xmlns="http://www.w3.org/2000/svg" xmlns:xlink="http://www.w3.org/1999/xlink" x="0px" y="0px"
	 viewBox="0 0 1200 1200" style="enable-background:new 0 0 1200 1200;" xml:space="preserve">
<style type="text/css">
	.st0{fill:#B9B9BA;}
	.st1{fill:#D33257;}
	.st2{fill:#FFFFFF;}
	.st3{fill:#221F1F;}
</style>
<g>
	<g>
		<polygon class="st0" points="188.1,470.7 63.2,861.8 137,833.2 260.9,664.1 394.2,792.7 527.6,704.6 632.4,861.8 663.4,861.8 
			556.2,497.4 591.1,616 548.2,585.5 505.3,595.7 453.8,695 363.3,470.5 299,435.4 265.6,509.3 241.8,430.7 		"/>
		<polygon class="st1" points="265.6,509.3 299,435.4 363.3,470.5 265.6,228.2 188.1,470.7 241.8,430.7 		"/>
		<polygon class="st1" points="591.1,616 556.2,497.4 505.3,595.7 548.2,585.5 		"/>
		<path class="st3" d="M513.7,268.1c38,0,73.7,7.2,107.1,21.7c32.7,13.9,62.4,34.1,87.4,59.3c24.9,25.2,44.9,54.8,58.9,87.4
			c14.4,33.2,21.7,68.8,21.7,106.8s-7.2,73.7-21.7,107.1c-13.9,32.7-33.9,62.5-58.9,87.8c-25,25.2-54.7,45.3-87.4,59.3
			c-33.4,14.4-69.2,21.6-107.1,21.7H354.2V268.1H513.7z M513.7,657.9c15.8,0.1,31.4-2.9,46-8.7c59.1-24.1,87.5-91.5,63.4-150.6
			c-5.9-14.5-14.7-27.6-25.8-38.6c-10.9-10.5-23.6-18.9-37.6-24.7c-14.6-6.1-30.2-9.2-46-9.1L513.7,657.9z"/>
		<path class="st3" d="M808.3,788.8h328.5v60H808.3V788.8z"/>
		<path class="st1" d="M975,270.2c20.4-0.8,40.8,0.1,61,2.6c21,2.7,41.6,7.6,61.5,14.7c-0.6,4.8-1,9.6-1.1,14.5v14.2
			c0,6.3-0.2,16-0.6,28.9c-0.4,12.9-1.3,32.5-2.9,58.7c-13.9-5.5-28.2-10.2-42.8-13.9c-14.6-3.9-29.5-7-44.5-9.2
			c-7.4-0.8-14.9-0.6-22.2,0.6c-6.9,1-13.3,3.8-18.8,8c-4.2,4.2-4.9,8.7-2,13.3c2.7,4.4,6.3,8.2,10.7,11l65.9,21.4
			c13.5,4.1,26.4,10.1,38.1,17.9c11.3,7.5,21.4,16.5,30.1,26.9c8.4,10.1,15.1,21.5,19.9,33.8c4.9,12.5,7.3,25.9,7.2,39.3
			c0.4,20.4-2.8,38.8-9.5,55.2c-6.5,15.9-16,30.5-28,42.8c-12.4,12.4-27,22.5-43.1,29.5c-17.3,7.7-35.8,12.6-54.6,14.7
			c-2.7,0.4-6.7,0.7-12.1,0.9s-11.2,0.3-17.3,0.3c-11.2,0.4-22.4,0.2-33.5-0.6c-9.9-0.6-19.8-2-29.5-4c-10.4-2.3-21.1-5.2-32.1-8.7
			c-11-3.5-25.1-8.5-42.5-15L860,543.5c5.8,1.9,11.6,4,17.3,6.1c5.8,2.1,11.6,4.3,17.3,6.6l27.2,9.8c8.9,3.5,17.6,6.7,26.3,9.8
			c9,3.1,18.5,4.7,28,4.6c5.5-0.2,10.8-1.7,15.6-4.3c4.2-2.5,6.7-7,7.5-13.6c0-4.4-1.4-8.8-4-12.4c-2.7-3.7-6.2-6.8-10.1-9.2
			c-4.1-2.5-8.5-4.7-13-6.4c-4.6-1.7-9.1-3.2-13.3-4.3c-17.7-4-34.5-11.2-49.7-21.1c-14.6-9.4-27.7-20.9-39-34.1
			c-10.8-12.6-19.5-26.7-26-41.9c-6.2-14.2-9.4-29.6-9.5-45.1c0-12.1,1.7-24.2,5.2-35.8c3.5-11.6,9.1-22.5,16.4-32.1
			c7.9-10.2,17.5-19,28.3-26c11.3-7.5,24.9-13.2,40.7-17C941.4,272.7,958.2,270.4,975,270.2z"/>
	</g>
	<g>
		<path class="st3" d="M66,897.5c8.3-1.3,17.2-2.1,24.1-2.1c20.9,0,34,8.9,34,37.9c0,30.9-13,37.4-33.8,37.4
			c-6.8,0-14.6-0.7-23.1-1.5c-0.7,0-1.2-0.6-1.2-1.2c0-11.6-0.2-22.3-0.2-34.6C65.7,921,66,909.9,66,897.5z M90.5,949.8h2.1
			c3.4,0,5.7-1.6,5.7-16.4c0-14.7-2.4-16.3-5.7-16.3h-2.1c-0.1,5.1-0.2,10.4-0.2,16.4C90.2,939.4,90.3,944.6,90.5,949.8z"/>
		<path class="st3" d="M137,896.3c3.9-0.2,6.7-0.3,10.8-0.3c4.2,0,8.5,0.1,12.7,0.3c0.7,0,1.2,0.6,1.2,1.2
			c0.2,11.6,0.5,23.5,0.5,35.9c0,12.4-0.2,24.7-0.5,37.1c-3.9,0.2-6.7,0.3-10.8,0.3c-4.2,0-8.5-0.1-12.7-0.3c-0.7,0-1.2-0.6-1.2-1.2
			c-0.2-11.6-0.5-23.5-0.5-35.9C136.5,921,136.7,908.7,137,896.3z"/>
		<path class="st3" d="M208.7,895.4c6.9,0,14.3,0.8,22.2,2.1l-2.6,19.6h-22c-3.3,0-5.7,1.6-5.7,16.3c0,14.7,2.8,16.4,6.3,16.4h2.5
			c0-5-0.2-12.4-0.5-18.8c3.4-0.2,6.6-0.2,9.8-0.2c3.4,0,6.9,0.1,10.8,0.2c0.7,0,1.2,0.6,1.2,1.2c0.3,5.7,0.5,11.2,0.5,17.3
			c0,5.8-0.2,14-0.5,18.9c-8.5,1.5-13.2,2.4-22.2,2.4c-20.8,0-33.8-6.5-33.8-37.4C174.6,904.3,187.7,895.4,208.7,895.4z"/>
		<path class="st3" d="M245.7,896.3c3.9-0.2,6.7-0.3,10.8-0.3c4.2,0,8.5,0.1,12.7,0.3c0.7,0,1.2,0.6,1.2,1.2
			c0.2,11.6,0.5,23.5,0.5,35.9c0,12.4-0.2,24.7-0.5,37.1c-3.9,0.2-6.7,0.3-10.8,0.3c-4.2,0-8.5-0.1-12.7-0.3c-0.7,0-1.2-0.6-1.2-1.2
			c-0.2-11.6-0.5-23.5-0.5-35.9C245.2,921,245.4,908.7,245.7,896.3z"/>
		<path class="st3" d="M282,896.3c3.9-0.2,24.5-0.3,28.6-0.3c4.2,0,21.4,0.1,25.6,0.3c0.7,0,1.2,0.6,1.2,1.2c0.1,3.5,0.1,7,0.1,10.5
			c0,3,0,6.1-0.1,9.3c-2,0.1-8.6,0.2-15,0.2c0.1,5,0.1,10.1,0.1,15.9c0,12.4-0.2,24.7-0.5,37.1c-3.9,0.2-6.7,0.3-10.8,0.3
			c-4.2,0-8.5-0.1-12.7-0.3c-0.7,0-1.2-0.6-1.2-1.2c-0.2-11.6-0.5-23.5-0.5-35.9c0-5.7,0-10.9,0.1-16c-5.6-0.1-11.5-0.3-13.7-0.3
			c-0.7,0-1.2-0.6-1.2-1.2c-0.1-3.6-0.1-6.9-0.1-10.2C281.9,902.7,282,899.6,282,896.3z"/>
		<path class="st3" d="M342,965.7c3.7-22.6,8.9-46.6,13.5-69.4c5.5-0.3,11.2-0.3,17-0.3c6,0,11.8,0.1,17.7,0.3
			c0.7,0,1.3,0.6,1.5,1.2c4.7,23.7,10.5,49,14.1,73c-3.9,0.2-6.6,0.3-10.8,0.3c-4.2,0-7.9,0-12.1-0.3c-0.7,0-1.3-0.6-1.5-1.2
			c-0.8-4.1-1.5-8.2-2.2-12.4h-11.5c-0.7,4.6-1.5,9.1-2.4,13.6c-4,0.2-6.1,0.3-10.2,0.3c-4.2,0-8.5-0.1-12.7-0.3c-0.6,0-1-0.4-1-1
			C341.4,969.2,341.8,966.9,342,965.7z M376.7,940.8c-1.3-9.2-2.5-18.6-3.8-27.8c-1.1,9.2-2,18.5-3.1,27.8H376.7z"/>
		<path class="st3" d="M416.7,896.3c3.9-0.2,6.7-0.3,10.8-0.3c4.2,0,8.5,0.1,12.7,0.3c0.7,0,1.2,0.6,1.2,1.2
			c0.2,11.6,0.5,23.5,0.5,35.9c0,5.5,0,10.8-0.1,16.1h0.5c4.2,0,14.7,0.1,18.9,0.3c0.7,0,1.2,0.6,1.2,1.2c0.1,3.8,0.1,7.2,0.1,10.7
			c0,2.9,0,5.9-0.1,9.1c-3.9,0.2-14.1,0.3-18.2,0.3c-4.2,0-22.1-0.4-26.3-0.5c-0.7,0-1.2-0.6-1.2-1.2c-0.2-11.6-0.5-23.5-0.5-35.9
			C416.2,921,416.4,908.7,416.7,896.3z"/>
		<path class="st3" d="M517.5,947.4c8.7,2.7,16.3,4.3,21.9,4.3c4.6,0,6.6-2.4,6.6-4.4c0-2.5-3.6-3.5-8.3-4.8
			c-9.3-2.6-23.1-6.6-23.1-25.6c0-20.1,12.4-21.5,29.3-21.5c7.2,0,15.6,1.1,23.9,2.7l-2.8,20.6c-5.8-2.6-14.6-5-22.3-5
			c-3.7,0-6.2,1.2-6.2,3.5c0,2.2,3.8,3.3,8.9,4.8c10.2,3.1,25.5,7.6,25.5,24.9c0,19.7-13.6,24.3-30.3,24.3c-8.4,0-17.5-0.5-26.1-1.4
			L517.5,947.4z"/>
		<path class="st3" d="M580.9,896.3c3.9-0.2,6.7-0.3,10.8-0.3c4.2,0,8.5,0.1,12.7,0.3c0.7,0,1.2,0.6,1.2,1.2
			c0.2,11.6,0.5,27.7,0.5,40.1c0,11,1.6,12.6,5,12.6c3.3,0,4.7-1.6,4.7-12.7c0-12.3,0.2-28.9,0.5-41.3c3.9-0.2,6.7-0.3,10.8-0.3
			c4.2,0,8.5,0.1,12.7,0.3c0.7,0,1.2,0.6,1.2,1.2c0.2,11.6,0.5,24,0.5,36.3c0,26.8-10.1,37-27.6,37.9c-22.3,0-33.5-6.8-33.5-37.9
			C580.4,921.5,580.6,908.7,580.9,896.3z"/>
		<path class="st3" d="M654.5,896.3c3.9-0.2,6.1-0.3,10.2-0.3c4.2,0,7,0.1,10.7,0.3c0.7,0,1.1,0.6,1.4,1.2l15.5,31.7l15.5-31.7
			c0.4-0.5,0.9-1.2,1.5-1.2c2.3-0.2,5.3-0.3,8.7-0.3c4.2,0,8,0.1,11.5,0.3c0.7,0,1.2,0.6,1.2,1.2c0.2,11.6,0.5,23.5,0.5,35.9
			c0,12.4-0.2,24.7-0.5,37.1c-3.6,0.2-5.5,0.3-9.6,0.3c-3,0-7.3-0.1-11.5-0.3c-0.7,0-1.2-0.6-1.2-1.2c-0.2-11-0.7-22.1-0.7-33.7
			l-14.1,28.8l-1.4,0.2l-1.2-0.2l-13.4-27.4l0.4,33.6c-3.9,0.2-6.1,0.3-10.2,0.3c-3,0-7.9-0.1-12.1-0.3c-0.7,0-1.2-0.6-1.2-1.2
			c-0.2-11.6-0.5-23.5-0.5-35.9C654,921,654.2,908.7,654.5,896.3z"/>
		<path class="st3" d="M746.6,896.3c3.9-0.2,6.1-0.3,10.2-0.3c4.2,0,7,0.1,10.7,0.3c0.7,0,1.1,0.6,1.4,1.2l15.5,31.7l15.5-31.7
			c0.4-0.5,0.9-1.2,1.5-1.2c2.3-0.2,5.3-0.3,8.7-0.3c4.2,0,8,0.1,11.5,0.3c0.7,0,1.2,0.6,1.2,1.2c0.2,11.6,0.5,23.5,0.5,35.9
			c0,12.4-0.2,24.7-0.5,37.1c-3.6,0.2-5.5,0.3-9.6,0.3c-3,0-7.3-0.1-11.5-0.3c-0.7,0-1.2-0.6-1.2-1.2c-0.2-11-0.7-22.1-0.7-33.7
			l-14.1,28.8l-1.4,0.2l-1.2-0.2l-13.4-27.4l0.4,33.6c-3.9,0.2-6.1,0.3-10.2,0.3c-3,0-7.9-0.1-12.1-0.3c-0.7,0-1.2-0.6-1.2-1.2
			c-0.2-11.6-0.5-23.5-0.5-35.9C746.1,921,746.3,908.7,746.6,896.3z"/>
		<path class="st3" d="M838.6,896.3c3.9-0.2,6.7-0.3,10.8-0.3c4.2,0,8.5,0.1,12.7,0.3c0.7,0,1.2,0.6,1.2,1.2
			c0.2,11.6,0.5,23.5,0.5,35.9c0,12.4-0.2,24.7-0.5,37.1c-3.9,0.2-6.7,0.3-10.8,0.3c-4.2,0-8.5-0.1-12.7-0.3c-0.7,0-1.2-0.6-1.2-1.2
			c-0.2-11.6-0.5-23.5-0.5-35.9C838.1,921,838.3,908.7,838.6,896.3z"/>
		<path class="st3" d="M875,896.3c3.9-0.2,24.5-0.3,28.6-0.3c4.2,0,21.4,0.1,25.6,0.3c0.7,0,1.2,0.6,1.2,1.2c0.1,3.5,0.1,7,0.1,10.5
			c0,3,0,6.1-0.1,9.3c-2,0.1-8.6,0.2-15,0.2c0.1,5,0.1,10.1,0.1,15.9c0,12.4-0.2,24.7-0.5,37.1c-3.9,0.2-6.7,0.3-10.8,0.3
			c-4.2,0-8.5-0.1-12.7-0.3c-0.7,0-1.2-0.6-1.2-1.2c-0.2-11.6-0.5-23.5-0.5-35.9c0-5.7,0-10.9,0.1-16c-5.6-0.1-11.5-0.3-13.7-0.3
			c-0.7,0-1.2-0.6-1.2-1.2c-0.1-3.6-0.1-6.9-0.1-10.2C874.9,902.7,874.9,899.6,875,896.3z"/>
		<path class="st3" d="M982.7,896.7c0-0.7,0.4-1.2,1.1-1.2c1.5-0.1,5.1-0.1,8.7-0.1c3.6,0,7.3,0,8.7,0.1c0.7,0,1.2,0.6,1.2,1.2
			c0,4.2,0.1,8,0.1,11.9c-0.7,5.6-4.5,18.7-5.3,20.9c-1.7,0.1-3.4,0.1-5.2,0.1c-2.4,0-4.8-0.1-6.9-0.1c-0.4-2.3-2-14.7-2.5-20.4
			C982.6,905.1,982.7,900.9,982.7,896.7z"/>
		<path class="st3" d="M1036.9,922.9c4.4-2,7.6-3.5,7.6-5.7c0-2.3-3.1-3.5-7.1-3.5c-7.5,0-13.8,3.2-17.4,5l-2.8-20.6
			c5.8-1.4,12-2.7,18.9-2.7c17,0,30.1,1.4,30.1,21.5c0,14-10,19.5-17.5,23.4c-4.6,2.4-8.3,4.2-8.3,7.1v2.1h1.3
			c4.2,0,18.4,0.1,22.6,0.3c0.7,0,1.2,0.6,1.2,1.2c0.1,3.7,0.1,7.2,0.1,10.7c0,3,0,6-0.1,9.1c-3.9,0.2-17.8,0.3-22,0.3
			c-4.2,0-22.1-0.4-26.3-0.5c-0.7,0-1.2-0.6-1.2-1.2c-0.3-7.5-0.5-11.8-0.5-19.2C1015.6,932.9,1028.3,926.9,1036.9,922.9z"/>
		<path class="st3" d="M1075.7,946.8c4.2-13.5,14-42.2,18.1-50.7c3.2-0.1,10.6-0.2,16.7-0.2c6.1,0,12,0.2,18.9,0.4
			c0.7,0,1.2,0.6,1.2,1.2c0.2,11.6,0.5,23.5,0.5,35.9c0,12.4-0.2,24.7-0.5,37.1c-3.3,0.2-6.6,0.2-9.9,0.2c-3.9,0-7.7-0.1-11.6-0.2
			c-0.7,0-1.2-0.6-1.2-1.2c-0.1-3.5-0.1-6.9-0.1-10.4c-4.2,0-7.8,0-9.2,0c-4.2,0-17.4-0.1-21.6-0.3c-0.7,0-1.2-0.6-1.2-1.2
			c-0.1-1.5-0.1-3.2-0.1-4.8C1075.7,950.6,1075.7,948.6,1075.7,946.8z M1107.9,939.7c0-2.1,0-4.2,0-6.3c0-4.5,0.2-12.7,0.5-21.2
			c-3.5,10.7-6.8,19.8-10,27.3C1100.9,939.6,1104.3,939.6,1107.9,939.7z"/>
	</g>
</g>
</svg>
